<?xml version="1.0" encoding="UTF-8" standalone="no"?>
<svg
   xmlns:dc="http://purl.org/dc/elements/1.1/"
   xmlns:cc="http://creativecommons.org/ns#"
   xmlns:rdf="http://www.w3.org/1999/02/22-rdf-syntax-ns#"
   xmlns:svg="http://www.w3.org/2000/svg"
   xmlns="http://www.w3.org/2000/svg"
   id="svg106"
   version="1.1"
   style="overflow:visible"
   viewBox="-240 -126 480 252"
   height="1008px"
   width="1920px">
  <metadata
     id="metadata112">
    <rdf:RDF>
      <cc:Work
         rdf:about="">
        <dc:format>image/svg+xml</dc:format>
        <dc:type
           rdf:resource="http://purl.org/dc/dcmitype/StillImage" />
      </cc:Work>
    </rdf:RDF>
  </metadata>
  <defs
     id="defs110" />
  <rect
     id="rect2"
     fill-opacity="0"
     fill="rgb(0,0,0)"
     height="252"
     width="480"
     y="-126"
     x="-240" />
  <svg
     id="svg104"
     version="1.1"
     y="-250"
     x="-250"
     viewBox="-250 -250 500 500"
     height="500"
     width="500"
     style="overflow:visible">
    <g
       style="fill:#ffffff;stroke-linejoin:round"
       id="g102">
      <path
         style="fill:#ffffff;fill-opacity:1;stroke:#444444;stroke-width:6;stroke-linecap:butt;stroke-linejoin:round;stroke-opacity:1"
         id="path4"
         d="m 127.19,-108.86 c 10.861,56.076 18.22,117.98 22.429,181.81 L 87.193,70.6206 Z" />
      <path
         style="fill:#656565;fill-opacity:1;stroke:#444444;stroke-width:6;stroke-linecap:butt;stroke-linejoin:round;stroke-opacity:1"
         id="path6"
         d="M 141.91,95.3 127.19,-108.86 81.12,97.9 Z" />
      <path
         style="fill:#656565;fill-opacity:1;stroke:#444444;stroke-width:6;stroke-linecap:butt;stroke-linejoin:round;stroke-opacity:1"
         id="path8"
         d="M 94.05,119.91 141.91,95.3 52.011,84.29 Z" />
      <path
         style="fill:#797979;fill-opacity:1;stroke:#444444;stroke-width:6;stroke-linecap:butt;stroke-linejoin:round;stroke-opacity:1"
         id="path10"
         d="m -138.13,34.43 -5.8208,52.458 238.01,33.029 7.1143,-55.696 z" />
      <path
         style="fill:#d1e4e4;fill-opacity:1;stroke:#444444;stroke-width:6;stroke-linecap:butt;stroke-linejoin:round;stroke-opacity:1"
         id="path12"
         d="m -121.81,-113.39 c -4.1696,61.5 -13.293,121.35 -27.811,179.39 l 250.94,30.439 c 14.53,-66.067 19.632,-135.91 25.87,-205.3 z" />
      <path
         style="fill:#797979;fill-opacity:1;stroke:#444444;stroke-width:6;stroke-linecap:butt;stroke-linejoin:round;stroke-opacity:1"
         id="path14"
         d="m 32.979999,-117.39 c -9.2247,3.3155 -10.842,17.346 -3.2667,24.155 4.4721,4.0195 10.302,-0.3277 7.8311,-4.8341 -2.3602,-4.3039 -2.588,-10.329 0.7307,-12.411 l 6.5416,0.117 c 0,-4.7948 -5.7748,-9.2056 -11.837,-7.0268 z m 29.71,0.54 c -9.2247,3.3156 -10.842,17.346 -3.2667,24.155 4.4721,4.0195 10.302,-0.3277 7.8311,-4.8341 -2.3602,-4.3039 -2.588,-10.329 0.7307,-12.411 l 6.5417,0.117 c 0,-4.7948 -5.7748,-9.2056 -11.837,-7.0268 z m 28.92,0.53 c -9.2247,3.3155 -10.842,17.346 -3.2667,24.155 4.4721,4.0195 10.302,-0.3277 7.8311,-4.8341 -2.3602,-4.3039 -2.588,-10.329 0.7307,-12.411 l 6.541701,0.117 c 0,-4.7948 -5.774801,-9.2056 -11.837001,-7.0268 z" />
      <path
         style="fill:#797979;fill-opacity:1;stroke:#444444;stroke-width:6;stroke-linecap:butt;stroke-linejoin:round;stroke-opacity:1"
         id="path16"
         d="m -97.39,-119.37 c -8.7588,3.1258 -10.295,16.354 -3.1018,22.773 4.2462,3.7895 9.782,-0.309 7.4356,-4.5575 -2.241,-4.0577 -2.4573,-9.7376 0.6937,-11.701 l 6.2113,0.1103 c 0,-4.5205 -5.4832,-8.6789 -11.239,-6.6248 z m 24.58,0.45 c -8.7588,3.1258 -10.295,16.354 -3.1018,22.773 4.2462,3.7895 9.782,-0.309 7.4356,-4.5575 -2.241,-4.0577 -2.4573,-9.7376 0.6938,-11.701 l 6.2113,0.1103 c 0,-4.5205 -5.4831,-8.6788 -11.239,-6.6248 z m 27.62,0.5 c -8.7588,3.1258 -10.295,16.354 -3.1018,22.773 4.2462,3.7895 9.782,-0.309 7.4356,-4.5575 -2.241,-4.0577 -2.4573,-9.7376 0.6938,-11.701 l 6.2113,0.1103 c 0,-4.5205 -5.4832,-8.6788 -11.239,-6.6248 z" />
      <path
         style="fill:#ff9239;fill-opacity:1;stroke:none;stroke-linecap:butt;stroke-linejoin:round"
         id="path18"
         d="m -106.91,-78.83 c -0.394,3.6175 -0.8148,7.2612 -1.2324,10.902 l 27.939,1.2793 c 0.2737,-2.4783 0.5406,-7.1287 0.7988,-11.135 l -27.506,-1.0469 z" />
      <path
         style="fill:#ffe839;fill-opacity:1;stroke:none;stroke-linecap:butt;stroke-linejoin:round"
         id="path20"
         d="m -73.41,-77.56 c -0.2552,3.9887 -0.5183,8.7216 -0.7891,11.182 l 22.566,1.033199 c 0.2751,-2.5347 0.5498,-7.2654 0.8281,-11.354 l -22.605,-0.8613 z" />
      <path
         style="fill:#7bff39;fill-opacity:1;stroke:none;stroke-linecap:butt;stroke-linejoin:round"
         id="path22"
         d="m -44.81,-76.47 c -0.2757,4.0643 -0.5455,8.8856 -0.8184,11.4 l 24.287,1.1113 c 0.2474,-2.5998 0.4941,-7.438 0.7422,-11.59 l -24.211,-0.9219 z" />
      <path
         style="fill:#39ffff;fill-opacity:1;stroke:none;stroke-linecap:butt;stroke-linejoin:round"
         id="path24"
         d="m -14.6,-75.32 c -0.2465,4.1346 -0.4904,9.0482 -0.7363,11.635 l 24.77,1.1348 c 0.2706,-2.67 0.5433,-7.6033 0.8106,-11.822 l -24.84,-0.95 z" />
      <path
         style="fill:#39aaff;fill-opacity:1;stroke:none;stroke-linecap:butt;stroke-linejoin:round"
         id="path26"
         d="m 16.239999,-74.14 c -0.2655,4.2011 -0.5359,9.2125 -0.8047,11.869 l 24.533,1.123 c 0.2716,-2.742 0.5434,-7.777 0.8125,-12.059 l -24.541,-0.9336 z" />
      <path
         style="fill:#aa39ff;fill-opacity:1;stroke:none;stroke-linecap:butt;stroke-linejoin:round"
         id="path28"
         d="m 46.78,-72.98 c -0.2668,4.2623 -0.5368,9.376 -0.8066,12.104 l 24.707,1.1309 c 0.2422,-2.8096 0.4856,-7.9498 0.7227,-12.295 l -24.623,-0.9395 z" />
      <path
         style="fill:#ff399a;fill-opacity:1;stroke:none;stroke-linecap:butt;stroke-linejoin:round"
         id="path30"
         d="m 77.4,-71.81 c -0.2369,4.334 -0.4813,9.5383 -0.7227,12.342 l 28.342,1.5293 c 0.3754,-4.2647 0.7351,-8.5258 1.0606,-12.779 l -28.68,-1.0918 z" />
      <path
         style="fill:#ffffff;fill-opacity:1;stroke:none;stroke-linecap:butt;stroke-linejoin:round"
         id="path32"
         d="m -122.92,29.81 c -1.3076,6.7283 -2.6883,13.527 -4.1699,20.43 l 27.867,3.0742 c 1.2626,-6.7541 2.7588,-15.448 3.793,-20.805 l -27.49,-2.6992 z" />
      <path
         style="fill:#ffffff;fill-opacity:1;stroke:none;stroke-linecap:butt;stroke-linejoin:round"
         id="path34"
         d="m -118.62,6.34 c -0.9964,5.7944 -2.045,11.643 -3.1602,17.557 l 27.484,2.6992 c 1.102,-5.8476 2.1922,-11.797 3.2558,-17.889 l -27.58,-2.3672 z" />
      <path
         style="fill:#ffffff;fill-opacity:1;stroke:none;stroke-linecap:butt;stroke-linejoin:round"
         id="path36"
         d="m -115.21,-14.68 c -0.7648,4.9908 -1.5638,10.016 -2.4082,15.086 l 27.596,2.3672 c 0.8649,-5.0879 1.7107,-10.241 2.5332,-15.455 l -27.721,-1.998 z" />
      <path
         style="fill:#ffffff;fill-opacity:1;stroke:none;stroke-linecap:butt;stroke-linejoin:round"
         id="path38"
         d="m -111.84,-38.26 c -0.7837,5.8348 -1.5937,11.697 -2.4726,17.627 l 27.752,2 c 0.9078,-5.9356 1.7795,-11.938 2.6133,-17.984 l -27.893,-1.6426 z" />
      <path
         style="fill:#ffffff;fill-opacity:1;stroke:none;stroke-linecap:butt;stroke-linejoin:round"
         id="path40"
         d="m -108.84,-61.95 c -0.6934,5.8652 -1.4326,11.776 -2.2051,17.721 l 27.91,1.6445 c 0.7957,-5.9968 1.5524,-12.031 2.2559,-18.086 l -27.961,-1.2793 z" />
      <path
         style="fill:#ffffff;fill-opacity:1;stroke:none;stroke-linecap:butt;stroke-linejoin:round"
         id="path42"
         d="m -89.43,33.09 c -1.041601,5.407 -2.5289,14.032 -3.8047,20.875 l 24.477,2.7012 c 1.2816,-7.0808 2.7394,-15.924 3.6738,-21.186 l -24.346,-2.3906 z" />
      <path
         style="fill:#ffffff;fill-opacity:1;stroke:none;stroke-linecap:butt;stroke-linejoin:round"
         id="path44"
         d="m -85.03,9.21 c -1.0656,6.1165 -2.1572,12.088 -3.2617,17.961 l 24.25,2.3828 c 1.0586,-6.1898 2.0312,-12.268 2.9434,-18.291 l -23.932,-2.052701 z" />
      <path
         style="fill:#ffffff;fill-opacity:1;stroke:none;stroke-linecap:butt;stroke-linejoin:round"
         id="path46"
         d="m -81.47,-12.26 c -0.8246,5.2406 -1.6717,10.423 -2.5391,15.537 l 23.799,2.041 c 0.7727,-5.3093 1.4995,-10.596 2.1953,-15.889 l -23.455,-1.6894 z" />
      <path
         style="fill:#ffffff;fill-opacity:1;stroke:none;stroke-linecap:butt;stroke-linejoin:round"
         id="path48"
         d="m -77.93,-36.28 c -0.8351,6.0748 -1.7076,12.102 -2.6172,18.064 l 23.283,1.6777 c 0.7704,-6.0667 1.5146,-12.198 2.2344,-18.393 l -22.9,-1.3496 z" />
      <path
         style="fill:#ffffff;fill-opacity:1;stroke:none;stroke-linecap:butt;stroke-linejoin:round"
         id="path50"
         d="m -74.87,-60.41 c -0.7042,6.0823 -1.4572,12.144 -2.2539,18.166 l 22.787,1.3418 c 0.6868,-6.0398 1.369,-12.172 2.0566,-18.475 l -22.59,-1.0332 z" />
      <path
         style="fill:#ffffff;fill-opacity:1;stroke:none;stroke-linecap:butt;stroke-linejoin:round"
         id="path52"
         d="m -59.1,36.07 c -0.9393,5.3047 -2.3905,14.092 -3.6836,21.258 l 24.529,2.707 c 1.3138,-7.189 2.8059,-16.173 3.7656,-21.547 l -24.62,-2.42 z" />
      <path
         style="fill:#ffffff;fill-opacity:1;stroke:none;stroke-linecap:butt;stroke-linejoin:round"
         id="path54"
         d="m -55.12,11.78 c -0.9133,6.0462 -1.8876,12.151 -2.9473,18.365 l 24.623,2.418 c 1.087,-6.328 2.078199,-12.53 3.002,-18.666 l -24.678,-2.1172 z" />
      <path
         style="fill:#ffffff;fill-opacity:1;stroke:none;stroke-linecap:butt;stroke-linejoin:round"
         id="path56"
         d="m -52.03,-10.14 c -0.6978,5.3186 -1.426,10.633 -2.2012,15.971 l 24.676,2.1172 c 0.7878,-5.4673 1.5212,-10.892 2.2129,-16.309001 l -24.688,-1.7793 z" />
      <path
         style="fill:#ffffff;fill-opacity:1;stroke:none;stroke-linecap:butt;stroke-linejoin:round"
         id="path58"
         d="m -49.04,-34.57 c -0.7215,6.2175 -1.4676,12.376 -2.2402,18.471 l 24.674,1.7773 c 0.7618,-6.2275 1.4626,-12.5 2.1445,-18.801 l -24.578,-1.4473 z" />
      <path
         style="fill:#ffffff;fill-opacity:1;stroke:none;stroke-linecap:butt;stroke-linejoin:round"
         id="path60"
         d="m -46.28,-59.1 c -0.6894,6.3211 -1.3756,12.488 -2.0644,18.553 l 24.527,1.4453 c 0.6494,-6.2029 1.2842,-12.471 1.9043,-18.883 l -24.367,-1.1152 z" />
      <path
         style="fill:#ffffff;fill-opacity:1;stroke:none;stroke-linecap:butt;stroke-linejoin:round"
         id="path62"
         d="m -28.5,39.08 c -0.9646,5.4176 -2.4466,14.344 -3.7715,21.619 l 24.381,2.6895 c 1.1761,-7.2764 2.5715,-16.383 3.4785,-21.943 l -24.09,-2.37 z" />
      <path
         style="fill:#ffffff;fill-opacity:1;stroke:none;stroke-linecap:butt;stroke-linejoin:round"
         id="path64"
         d="m -24.45,14.41 c -0.9249,6.1595 -1.918,12.388 -3.0059,18.74 l 24.004,2.3574 c 1.0223,-6.3785 2.0112,-12.728 2.959,-19.043 l -23.957,-2.0547 z" />
      <path
         style="fill:#ffffff;fill-opacity:1;stroke:none;stroke-linecap:butt;stroke-linejoin:round"
         id="path66"
         d="m -21.35,-7.92 c -0.6935,5.4426 -1.4307,10.895 -2.2207,16.390999 l 23.967,2.0566 c 0.8149,-5.5572 1.6012,-11.123 2.3633,-16.709 l -24.109,-1.7383 z" />
      <path
         style="fill:#ffffff;fill-opacity:1;stroke:none;stroke-linecap:butt;stroke-linejoin:round"
         id="path68"
         d="m -18.46,-32.770001 c -0.6836,6.3247 -1.3864,12.622 -2.1504,18.879 l 24.158,1.7422 c 0.8392,-6.3256 1.6476,-12.72 2.4258,-19.182 l -24.434,-1.4394 z" />
      <path
         style="fill:#ffffff;fill-opacity:1;stroke:none;stroke-linecap:butt;stroke-linejoin:round"
         id="path70"
         d="m -15.91,-57.7 c -0.6218,6.4344 -1.2564,12.729 -1.9082,18.961 l 24.512,1.4434 c 0.7372,-6.3205 1.4508,-12.729 2.1367,-19.273 l -24.74,-1.1309 z" />
      <path
         style="fill:#ffffff;fill-opacity:1;stroke:none;stroke-linecap:butt;stroke-linejoin:round"
         id="path72"
         d="m 1.57,42.03 c -0.9121,5.598 -2.3031,14.675 -3.4883,22.016 l 24.59,2.7129 c 1.262,-7.3647 2.7288,-16.620001 3.6797,-22.295 L 1.5704,42.0303 Z" />
      <path
         style="fill:#ffffff;fill-opacity:1;stroke:none;stroke-linecap:butt;stroke-linejoin:round"
         id="path74"
         d="M 5.49,16.98 C 4.5396,23.3222 3.5479,29.696 2.5232,36.097 l 24.809,2.4356 c 1.0594,-6.5166 2.0531,-12.982 2.998,-19.42 l -24.84,-2.1328 z" />
      <path
         style="fill:#ffffff;fill-opacity:1;stroke:none;stroke-linecap:butt;stroke-linejoin:round"
         id="path76"
         d="M 8.75,-5.76 C 7.9856,-0.1458 7.1942,5.448 6.377,11.031 l 24.82,2.1289 C 32.0105,7.438 32.7832,1.7319 33.5232,-3.9751 L 8.7502,-5.7603 Z" />
      <path
         style="fill:#ffffff;fill-opacity:1;stroke:none;stroke-linecap:butt;stroke-linejoin:round"
         id="path78"
         d="m 11.97,-30.98 c -0.78,6.4893 -1.5926,12.909 -2.4336,19.26 l 24.727,1.7812 c 0.8174,-6.5075 1.5993,-13.039 2.3438,-19.59 L 11.9702,-30.98 Z" />
      <path
         style="fill:#ffffff;fill-opacity:1;stroke:none;stroke-linecap:butt;stroke-linejoin:round"
         id="path80"
         d="m 14.83,-56.3 c -0.6871,6.5674 -1.4002,13.008 -2.1387,19.352 l 24.592,1.4492 c 0.7192,-6.5126 1.4171,-13.059 2.087899,-19.678 l -24.541,-1.123 z" />
      <path
         style="fill:#ffffff;fill-opacity:1;stroke:none;stroke-linecap:butt;stroke-linejoin:round"
         id="path82"
         d="m 32.34,45.05 c -0.9554,5.7141 -2.4155,14.926 -3.6875,22.367 l 24.605,2.7148 c 1.366,-7.4085 2.9305,-16.799 3.9648,-22.637 l -24.883,-2.4453 z" />
      <path
         style="fill:#ffffff;fill-opacity:1;stroke:none;stroke-linecap:butt;stroke-linejoin:round"
         id="path84"
         d="m 36.33,19.62 c -0.9466,6.4619 -1.9446,12.953 -3.0059,19.494 l 24.936,2.4492 c 1.1205,-6.5804 2.1666,-13.176 3.1504,-19.793 l -25.08,-2.1504 z" />
      <path
         style="fill:#ffffff;fill-opacity:1;stroke:none;stroke-linecap:butt;stroke-linejoin:round"
         id="path86"
         d="M 39.52,-3.54 C 38.7781,2.1932 38.0038,7.927 37.188,13.677 l 25.088,2.1524 c 0.8319,-5.8306 1.6174,-11.682 2.3594,-17.561 l -25.115,-1.8086 z" />
      <path
         style="fill:#ffffff;fill-opacity:1;stroke:none;stroke-linecap:butt;stroke-linejoin:round"
         id="path88"
         d="m 42.61,-29.18 c -0.7461,6.5759 -1.5282,13.133 -2.3476,19.668 l 25.113,1.8106 c 0.8024,-6.6267 1.553,-13.292 2.2617,-20.004 L 42.6101,-29.18 Z" />
      <path
         style="fill:#ffffff;fill-opacity:1;stroke:none;stroke-linecap:butt;stroke-linejoin:round"
         id="path90"
         d="m 45.38,-54.9 c -0.6724,6.6444 -1.3744,13.215 -2.0957,19.756 l 24.965,1.4707 c 0.6745,-6.6467 1.3147,-13.338 1.918,-20.092 l -24.787,-1.1348 z" />
      <path
         style="fill:#ffffff;fill-opacity:1;stroke:none;stroke-linecap:butt;stroke-linejoin:round"
         id="path92"
         d="m 63.21,48.09 c -1.0386,5.8798 -2.595,15.209 -3.9727,22.709 l 27.246,3.0059 c 1.4457,-7.6879 2.8244,-15.361 4.148399,-23.021 l -27.422,-2.6934 z" />
      <path
         style="fill:#ffffff;fill-opacity:1;stroke:none;stroke-linecap:butt;stroke-linejoin:round"
         id="path94"
         d="m 67.39,22.3 c -0.9846,6.6391 -2.0345,13.259 -3.1562,19.865 l 27.41,2.6914 c 1.1382,-6.7438 2.2235,-13.476 3.2617,-20.197 L 67.3895,22.3 Z" />
      <path
         style="fill:#ffffff;fill-opacity:1;stroke:none;stroke-linecap:butt;stroke-linejoin:round"
         id="path96"
         d="m 70.62,-1.29 c -0.7434,5.9033 -1.5314,11.782 -2.3652,17.641 l 27.562,2.3652 c 0.9023,-6.0107 1.7639,-12.012 2.582,-18.004 l -27.779,-2.002 z" />
      <path
         style="fill:#ffffff;fill-opacity:1;stroke:none;stroke-linecap:butt;stroke-linejoin:round"
         id="path98"
         d="m 73.63,-27.34 c -0.7098,6.7351 -1.4615,13.428 -2.2656,20.082 l 27.834,2.0059 c 0.9001,-6.8234 1.7498,-13.634 2.5352,-20.432 l -28.104,-1.6562 z" />
      <path
         style="fill:#ffffff;fill-opacity:1;stroke:none;stroke-linecap:butt;stroke-linejoin:round"
         id="path100"
         d="m 76.17,-53.49 c -0.6043,6.7773 -1.2419,13.498 -1.918,20.172 l 28.154,1.6582 c 0.7499,-6.7806 1.4443,-13.549 2.0742,-20.303 l -28.311001,-1.5274 z" />
    </g>
  </svg>
</svg>
